<?xml version="1.0" encoding="UTF-8"?><svg id="Layer_2" xmlns="http://www.w3.org/2000/svg" viewBox="0 0 178.93 67.29"><defs><style>.cls-1{fill:#fc4d0d;}.cls-2,.cls-3,.cls-4,.cls-5{fill:#fff;}.cls-6{fill:#152242;}.cls-3{letter-spacing:0em;}.cls-7{font-family:Cabin-Medium, Cabin;font-size:36px;font-variation-settings:'wght' 500, 'wdth' 100;}.cls-4{letter-spacing:0em;}.cls-5{letter-spacing:-.01em;}</style></defs><g id="Layer_1-2"><circle class="cls-6" cx="33.66" cy="33.66" r="20.4"/><path class="cls-2" d="M40.07,25.86l-.73,.92c-1.97,2.45-5.93,1.07-5.93-2.08v-5.5s-13.33,6.66-13.33,18.32c0,4.86,2.6,9.11,6.48,11.43,6.93,2.72,9.08,2,13.76-.07,3.15-1.92,5.48-5.1,6.18-8.83,1.1-5.91-1.78-11.49-6.43-14.19Z"/><path class="cls-1" d="M33.64,12.46c-11.7,0-21.18,9.48-21.18,21.18s9.48,21.18,21.18,21.18,21.18-9.48,21.18-21.18c-.02-11.69-9.49-21.17-21.18-21.18Zm0,37.38c-8.95,0-16.2-7.25-16.2-16.2s7.25-16.2,16.2-16.2,16.2,7.25,16.2,16.2-7.25,16.2-16.2,16.2ZM31.15,4.98V2.49c0-1.38,1.12-2.49,2.49-2.49s2.49,1.12,2.49,2.49v2.49c0,1.38-1.12,2.49-2.49,2.49s-2.49-1.12-2.49-2.49ZM9.84,13.36c-.92-1.02-.85-2.6,.17-3.52,.95-.86,2.4-.86,3.35,0l1.78,1.78c.97,.97,.97,2.55,0,3.52-.98,.95-2.54,.95-3.52,0l-1.78-1.78Zm-2.37,20.28c0,1.38-1.12,2.49-2.49,2.49H2.49c-1.38,0-2.49-1.12-2.49-2.49s1.12-2.49,2.49-2.49h2.49c1.38,0,2.49,1.12,2.49,2.49Zm7.66,18.5c.97,.97,.97,2.55,0,3.52l-1.78,1.78c-.47,.46-1.09,.72-1.74,.72-.66,0-1.3-.26-1.78-.72-.97-.97-.97-2.55,0-3.52l1.78-1.78c.97-.97,2.55-.97,3.52,0Zm21,10.16v2.49c0,1.38-1.12,2.49-2.49,2.49s-2.49-1.12-2.49-2.49v-2.49c0-1.38,1.12-2.49,2.49-2.49s2.49,1.12,2.49,2.49Zm21.31-8.38c.97,.97,.97,2.55,0,3.52-.48,.46-1.11,.71-1.78,.72-.65,0-1.28-.26-1.74-.72l-1.78-1.78c-.92-1.02-.85-2.6,.17-3.52,.95-.86,2.4-.86,3.35,0l1.78,1.78Zm9.84-20.28c0,1.38-1.12,2.49-2.49,2.49h-2.49c-1.38,0-2.49-1.12-2.49-2.49s1.12-2.49,2.49-2.49h2.49c1.38,0,2.49,1.12,2.49,2.49Zm-15.14-18.5c-.97-.97-.97-2.55,0-3.52l1.78-1.78c.92-1.02,2.5-1.1,3.52-.17s1.1,2.5,.17,3.52c-.05,.06-.11,.12-.17,.17l-1.78,1.78c-.98,.95-2.54,.95-3.52,0Z"/><text class="cls-7" transform="translate(78.53 45.93)"><tspan class="cls-3" x="0" y="0">F</tspan><tspan class="cls-2" x="18.61" y="0">i</tspan><tspan class="cls-5" x="26.68" y="0">r</tspan><tspan class="cls-4" x="37.85" y="0">e</tspan><tspan class="cls-1" x="56.34" y="0">sol</tspan></text></g></svg>